<svg width="110" height="113" viewBox="0 0 110 113" fill="none" xmlns="http://www.w3.org/2000/svg"><mask id="mask0_27_35" style="mask-type:luminance" maskUnits="userSpaceOnUse" x="13" y="12" width="85" height="85"><path d="M13.877 96.1416L97.1408 96.1416L97.1408 12.8777L13.877 12.8777L13.877 96.1416Z" fill="#fff"/></mask><g mask="url(#mask0_27_35)"><path d="M55.5089 96.1416C32.5514 96.1416 13.877 77.4672 13.877 54.5097C13.877 31.5527 32.5514 12.8777 55.5089 12.8777C78.4659 12.8777 97.1408 31.5527 97.1408 54.5097C97.1408 77.4672 78.4659 96.1416 55.5089 96.1416ZM67.5669 52.4133L50.6319 35.4783C50.0521 34.8985 49.2935 34.601 48.5356 34.601C47.777 34.601 47.0038 34.8985 46.424 35.4783C45.2644 36.6379 45.2644 38.526 46.424 39.6862L61.2627 54.5097L46.424 69.3489C45.2644 70.5085 45.2644 72.382 46.424 73.5563C47.5988 74.7164 49.4723 74.7164 50.6319 73.5563L67.5669 56.6212C68.727 55.4616 68.727 53.5729 67.5669 52.4133Z" fill="url(#paint0_radial_27_35)"/></g><g filter="url(#filter0_f_27_35)"><circle cx="45.5" cy="45.5" r="45.5" transform="matrix(-1 0 0 1 100 13)" fill="url(#paint1_linear_27_35)" fill-opacity=".67"/></g><defs><radialGradient id="paint0_radial_27_35" cx="0" cy="0" r="1" gradientUnits="userSpaceOnUse" gradientTransform="matrix(80.1751 0 0 1823.63 23.143 53.87)"><stop stop-color="#FF6A45"/><stop offset="1" stop-color="#FF8A6C"/></radialGradient><linearGradient id="paint1_linear_27_35" x1="47.775" y1="117.096" x2="47.621" y2="-28.772" gradientUnits="userSpaceOnUse"><stop stop-color="#FF6A45"/><stop offset="1" stop-color="#FF6A45" stop-opacity="0"/></linearGradient><filter id="filter0_f_27_35" x="0" y="4" width="109" height="109" filterUnits="userSpaceOnUse" color-interpolation-filters="sRGB"><feFlood flood-opacity="0" result="BackgroundImageFix"/><feBlend in="SourceGraphic" in2="BackgroundImageFix" result="shape"/><feGaussianBlur stdDeviation="4.5" result="effect1_foregroundBlur_27_35"/></filter></defs></svg>