<svg width="110" height="113" viewBox="0 0 110 113" fill="none" xmlns="http://www.w3.org/2000/svg"><mask id="mask0_27_27" style="mask-type:luminance" maskUnits="userSpaceOnUse" x="12" y="12" width="85" height="85"><path d="M96.123 96.1416L12.8592 96.1416L12.8592 12.8777L96.123 12.8777L96.123 96.1416Z" fill="#fff"/></mask><g mask="url(#mask0_27_27)"><path d="M54.4911 96.1416C77.4486 96.1416 96.123 77.4672 96.123 54.5097C96.123 31.5527 77.4486 12.8777 54.4911 12.8777C31.5341 12.8777 12.8592 31.5527 12.8592 54.5097C12.8592 77.4672 31.5341 96.1416 54.4911 96.1416ZM42.4331 52.4133L59.3681 35.4783C59.9479 34.8985 60.7065 34.601 61.4644 34.601C62.223 34.601 62.9962 34.8985 63.576 35.4783C64.7356 36.6379 64.7356 38.526 63.576 39.6862L48.7373 54.5097L63.576 69.3489C64.7356 70.5085 64.7356 72.382 63.576 73.5563C62.4012 74.7164 60.5277 74.7164 59.3681 73.5563L42.4331 56.6212C41.273 55.4616 41.273 53.5729 42.4331 52.4133Z" fill="url(#paint0_radial_27_27)"/></g><g filter="url(#filter0_f_27_27)"><circle cx="55.5" cy="58.5" r="45.5" fill="url(#paint1_linear_27_27)" fill-opacity=".67"/></g><defs><radialGradient id="paint0_radial_27_27" cx="0" cy="0" r="1" gradientUnits="userSpaceOnUse" gradientTransform="matrix(-80.1751 0 0 -1823.63 86.857 53.87)"><stop stop-color="#FF6A45"/><stop offset="1" stop-color="#FF8A6C"/></radialGradient><linearGradient id="paint1_linear_27_27" x1="57.775" y1="130.096" x2="57.621" y2="-15.772" gradientUnits="userSpaceOnUse"><stop stop-color="#FF6A45"/><stop offset="1" stop-color="#FF6A45" stop-opacity="0"/></linearGradient><filter id="filter0_f_27_27" x="1" y="4" width="109" height="109" filterUnits="userSpaceOnUse" color-interpolation-filters="sRGB"><feFlood flood-opacity="0" result="BackgroundImageFix"/><feBlend in="SourceGraphic" in2="BackgroundImageFix" result="shape"/><feGaussianBlur stdDeviation="4.5" result="effect1_foregroundBlur_27_27"/></filter></defs></svg>